<svg xmlns="http://www.w3.org/2000/svg" width="138" height="130" fill="none" xmlns:v="https://vecta.io/nano"><g clip-path="url(#A)"><g fill="#5464a3"><path d="M68.393 24.669c8.474 0 15.361 6.878 15.361 15.364s-6.887 15.342-15.361 15.342a15.34 15.34 0 0 1-15.342-15.342c0-8.486 6.871-15.364 15.342-15.364zm65.668 52.851a7.85 7.85 0 0 0-10.572 3.369l-3.888 7.505L97.224 63.91c-.464-.508-.992-.911-1.541-1.268-2.142-1.763-5.693-3.021-11.291-3.372h-6.223v65.11H59.023V59.27l-36.167.052L38.86 30.674c2.04-3.649 1.063-8.142-2.09-10.679L68.735 4.589c1.203-.579 1.708-2.022 1.129-3.223A2.41 2.41 0 0 0 66.64.24L27.814 18.95c-.011.006-.014.016-.027.022-1.502.728-2.806 1.898-3.68 3.466L1.073 63.674a8.45 8.45 0 0 0 .091 8.403c1.519 2.579 4.292 4.169 7.285 4.169l29.872-.049v48.183H21.222v5.515h90.929v-5.517H98.558V88.631l17.056 18.656a7.84 7.84 0 0 0 5.788 2.551 8.25 8.25 0 0 0 1.028-.066 7.84 7.84 0 0 0 5.942-4.175l9.056-17.5a7.86 7.86 0 0 0-3.369-10.577h.002z"/><path d="M13.76 102.495v-24h95.356l15.587 24H13.76z" stroke="#5464a3"/></g><path d="M19.166 82.671c.224 0 .456.064.696.192.256.112.448.264.576.456l5.832 8.976-1.2-.048 5.976-8.928c.304-.432.696-.648 1.176-.648.384 0 .728.136 1.032.408a1.35 1.35 0 0 1 .456 1.056v13.896a1.48 1.48 0 0 1-.408 1.056c-.272.272-.632.408-1.08.408s-.816-.136-1.104-.408a1.48 1.48 0 0 1-.408-1.056V86.727l.936.216-4.896 7.464c-.144.176-.328.328-.552.456-.208.128-.424.184-.648.168-.208.016-.424-.04-.648-.168a2.09 2.09 0 0 1-.528-.456l-4.584-7.248.624-1.272v12.144c0 .416-.128.768-.384 1.056-.256.272-.592.408-1.008.408a1.29 1.29 0 0 1-.984-.408c-.256-.288-.384-.64-.384-1.056V84.135c0-.4.144-.744.432-1.032.304-.288.664-.432 1.08-.432zm28.424 3.744c.416 0 .76.136 1.032.408s.408.624.408 1.056v10.152a1.48 1.48 0 0 1-.408 1.056c-.272.272-.616.408-1.032.408s-.76-.136-1.032-.408a1.48 1.48 0 0 1-.408-1.056v-1.176l.528.216c0 .208-.112.464-.336.768-.224.288-.528.576-.912.864s-.84.536-1.368.744c-.512.192-1.072.288-1.68.288-1.104 0-2.104-.28-3-.84-.896-.576-1.608-1.36-2.136-2.352-.512-1.008-.768-2.16-.768-3.456 0-1.312.256-2.464.768-3.456.528-1.008 1.232-1.792 2.112-2.352.88-.576 1.856-.864 2.928-.864.688 0 1.32.104 1.896.312s1.072.472 1.488.792c.432.32.76.648.984.984.24.32.36.592.36.816l-.864.312v-1.752c0-.416.136-.76.408-1.032.272-.288.616-.432 1.032-.432zm-4.848 10.68c.704 0 1.32-.176 1.848-.528s.936-.832 1.224-1.44c.304-.608.456-1.288.456-2.04 0-.768-.152-1.456-.456-2.064-.288-.608-.696-1.088-1.224-1.44s-1.144-.528-1.848-.528c-.688 0-1.296.176-1.824.528s-.944.832-1.248 1.44c-.288.608-.432 1.296-.432 2.064 0 .752.144 1.432.432 2.04.304.608.72 1.088 1.248 1.44s1.136.528 1.824.528zm15.454 2.64c-1.36 0-2.544-.28-3.552-.84-.992-.576-1.76-1.352-2.304-2.328-.528-.976-.792-2.08-.792-3.312 0-1.44.288-2.664.864-3.672.592-1.024 1.36-1.808 2.304-2.352s1.944-.816 3-.816a5.38 5.38 0 0 1 2.304.504c.736.336 1.384.8 1.944 1.392.56.576 1 1.248 1.32 2.016a6.04 6.04 0 0 1 .504 2.448 1.23 1.23 0 0 1-.456.936c-.288.24-.624.36-1.008.36h-9.168l-.72-2.4h8.808l-.528.48v-.648a2.15 2.15 0 0 0-.504-1.248c-.288-.368-.656-.656-1.104-.864a2.98 2.98 0 0 0-1.392-.336c-.48 0-.928.064-1.344.192s-.776.344-1.08.648-.544.712-.72 1.224-.264 1.16-.264 1.944c0 .864.176 1.6.528 2.208.368.592.832 1.048 1.392 1.368.576.304 1.184.456 1.824.456.592 0 1.064-.048 1.416-.144s.632-.208.84-.336l.6-.36c.288-.144.56-.216.816-.216.352 0 .64.12.864.36a1.15 1.15 0 0 1 .36.84c0 .432-.224.824-.672 1.176-.416.352-1 .664-1.752.936-.752.256-1.528.384-2.328.384zm7.364-2.232c-.16-.224-.232-.512-.216-.864s.224-.656.624-.912a1.24 1.24 0 0 1 .816-.192c.288.016.568.16.84.432.464.464.952.824 1.464 1.08s1.152.384 1.92.384a8.15 8.15 0 0 0 .792-.096 1.58 1.58 0 0 0 .744-.384c.224-.208.336-.52.336-.936 0-.352-.12-.632-.36-.84s-.56-.384-.96-.528c-.384-.144-.816-.28-1.296-.408l-1.536-.48c-.512-.176-.984-.4-1.416-.672a3.4 3.4 0 0 1-1.056-1.128c-.272-.464-.408-1.048-.408-1.752 0-.8.224-1.48.672-2.04s1.024-.992 1.728-1.296a5.74 5.74 0 0 1 2.256-.456c.496 0 1.016.064 1.56.192a5.56 5.56 0 0 1 1.56.576c.496.256.912.6 1.248 1.032.176.24.28.528.312.864s-.12.64-.456.912c-.24.192-.52.28-.84.264-.32-.032-.584-.144-.792-.336-.272-.352-.64-.632-1.104-.84-.448-.208-.968-.312-1.56-.312-.24 0-.504.032-.792.096a1.4 1.4 0 0 0-.72.36c-.208.176-.312.464-.312.864 0 .368.12.664.36.888.24.208.56.384.96.528l1.32.384 1.464.456c.496.176.952.408 1.368.696s.752.664 1.008 1.128c.256.448.384 1.024.384 1.728 0 .816-.24 1.512-.72 2.088s-1.08 1.016-1.8 1.32c-.72.288-1.456.432-2.208.432-.944 0-1.888-.16-2.832-.48-.944-.336-1.728-.92-2.352-1.752zm12.466-10.608h5.688c.384 0 .704.128.96.384s.384.576.384.96c0 .368-.128.68-.384.936-.256.24-.576.36-.96.36h-5.688c-.384 0-.704-.128-.96-.384s-.384-.576-.384-.96c0-.368.128-.672.384-.912.256-.256.576-.384.96-.384zm2.568-3c.416 0 .752.144 1.008.432.272.272.408.616.408 1.032v10.68c0 .224.04.408.12.552a.84.84 0 0 0 .36.312c.16.064.328.096.504.096a1.41 1.41 0 0 0 .528-.096c.16-.08.344-.12.552-.12.224 0 .424.104.6.312.192.208.288.496.288.864 0 .448-.248.816-.744 1.104a2.98 2.98 0 0 1-1.56.432c-.336 0-.712-.024-1.128-.072-.4-.064-.784-.2-1.152-.408-.352-.224-.648-.56-.888-1.008s-.36-1.064-.36-1.848v-10.8c0-.416.136-.76.408-1.032.288-.288.64-.432 1.056-.432zm8.548 15.6c-.416 0-.76-.136-1.032-.408a1.48 1.48 0 0 1-.408-1.056v-9.912c0-.416.136-.76.408-1.032.272-.288.616-.432 1.032-.432s.76.144 1.032.432c.272.272.408.616.408 1.032v2.256l-.168-1.608a3.7 3.7 0 0 1 .672-1.008c.288-.304.608-.552.96-.744.352-.208.728-.36 1.128-.456s.8-.144 1.2-.144c.48 0 .88.136 1.2.408.336.272.504.592.504.96 0 .528-.136.912-.408 1.152-.272.224-.568.336-.888.336-.304 0-.584-.056-.84-.168-.24-.112-.52-.168-.84-.168-.288 0-.584.072-.888.216-.288.128-.56.336-.816.624-.24.288-.44.648-.6 1.08-.144.416-.216.912-.216 1.488v5.688a1.48 1.48 0 0 1-.408 1.056c-.272.272-.616.408-1.032.408zm20.883-6.408c0 1.312-.296 2.472-.888 3.48a6.2 6.2 0 0 1-2.352 2.328c-.976.56-2.072.84-3.288.84s-2.32-.28-3.312-.84c-.976-.56-1.76-1.336-2.352-2.328-.576-1.008-.864-2.168-.864-3.48s.288-2.464.864-3.456c.592-1.008 1.376-1.792 2.352-2.352.992-.576 2.096-.864 3.312-.864s2.312.288 3.288.864a6.15 6.15 0 0 1 2.352 2.352c.592.992.888 2.144.888 3.456zm-2.88 0c0-.816-.168-1.52-.504-2.112-.32-.608-.76-1.08-1.32-1.416a3.4 3.4 0 0 0-1.824-.504c-.672 0-1.288.168-1.848.504-.544.336-.984.808-1.32 1.416-.32.592-.48 1.296-.48 2.112 0 .8.16 1.504.48 2.112a3.81 3.81 0 0 0 1.32 1.392c.56.336 1.176.504 1.848.504a3.4 3.4 0 0 0 1.824-.504c.56-.336 1-.8 1.32-1.392.336-.608.504-1.312.504-2.112z" fill="#fff"/></g><defs><clipPath id="A"><path fill="#fff" d="M0 0h138v130H0z"/></clipPath></defs></svg>