<svg width="138" height="130" viewBox="0 0 138 130" fill="none" xmlns="http://www.w3.org/2000/svg">
<g clip-path="url(#clip0_103_50)">
<rect width="138" height="130" fill="white"/>
<path d="M68.3928 24.6686C76.8671 24.6686 83.7542 31.5471 83.7542 40.033C83.7542 48.5179 76.8671 55.3751 68.3928 55.3751C59.9215 55.3751 53.0507 48.5129 53.0507 40.033C53.0507 31.5471 59.9215 24.6686 68.3928 24.6686Z" fill="#5464A3"/>
<path d="M134.061 77.5201C130.214 75.5323 125.48 77.0393 123.489 80.8894L119.601 88.3944L97.2235 63.9109C96.7591 63.4031 96.232 62.9996 95.6827 62.6424C93.5404 60.8796 89.9897 59.6216 84.3912 59.2701H78.1682V124.38H59.0232V59.2701L22.8563 59.3223L38.8598 30.6735C40.8997 27.0241 39.9227 22.5313 36.7697 19.9942L68.7352 4.58926C69.9381 4.01 70.443 2.5677 69.8638 1.36577C69.2845 0.165772 67.8538 -0.339116 66.6403 0.240113L27.8141 18.9506C27.8035 18.9564 27.8006 18.967 27.7871 18.9728C26.2849 19.7007 24.9808 20.8707 24.1069 22.4384L1.07342 63.6742C-0.390131 66.2915 -0.354394 69.4878 1.16417 72.0771C2.68274 74.6558 5.4563 76.2457 8.4492 76.2457C8.455 76.2457 38.3214 76.1964 38.3214 76.1964V124.379H21.222V129.894H112.151V124.377H98.558V88.6307L115.614 107.287C117.107 108.923 119.217 109.838 121.402 109.838C121.743 109.838 122.089 109.815 122.43 109.772C124.978 109.437 127.191 107.877 128.372 105.597L137.428 88.0967C139.414 84.2477 137.909 79.5134 134.059 77.5197L134.061 77.5201Z" fill="#5464A3"/>
<path d="M13.76 102.495V78.4946H109.116L124.703 102.495H13.76Z" fill="#5464A3" stroke="#5464A3"/>
<path d="M19.1659 82.6706C19.3899 82.6706 19.6219 82.7346 19.8619 82.8626C20.1179 82.9746 20.3099 83.1266 20.4379 83.3186L26.2699 92.2946L25.0699 92.2466L31.0459 83.3186C31.3499 82.8866 31.7419 82.6706 32.2219 82.6706C32.6059 82.6706 32.9499 82.8066 33.2539 83.0786C33.5579 83.3506 33.7099 83.7026 33.7099 84.1346V98.0306C33.7099 98.4466 33.5739 98.7986 33.3019 99.0866C33.0299 99.3586 32.6699 99.4946 32.2219 99.4946C31.7739 99.4946 31.4059 99.3586 31.1179 99.0866C30.8459 98.7986 30.7099 98.4466 30.7099 98.0306V86.7266L31.6459 86.9426L26.7499 94.4066C26.6059 94.5826 26.4219 94.7346 26.1979 94.8626C25.9899 94.9906 25.7739 95.0466 25.5499 95.0306C25.3419 95.0466 25.1259 94.9906 24.9019 94.8626C24.6939 94.7346 24.5179 94.5826 24.3739 94.4066L19.7899 87.1586L20.4139 85.8866V98.0306C20.4139 98.4466 20.2859 98.7986 20.0299 99.0866C19.7739 99.3586 19.4379 99.4946 19.0219 99.4946C18.6219 99.4946 18.2939 99.3586 18.0379 99.0866C17.7819 98.7986 17.6539 98.4466 17.6539 98.0306V84.1346C17.6539 83.7346 17.7979 83.3906 18.0859 83.1026C18.3899 82.8146 18.7499 82.6706 19.1659 82.6706ZM47.59 86.4146C48.006 86.4146 48.35 86.5506 48.622 86.8226C48.894 87.0946 49.03 87.4466 49.03 87.8786V98.0306C49.03 98.4466 48.894 98.7986 48.622 99.0866C48.35 99.3586 48.006 99.4946 47.59 99.4946C47.174 99.4946 46.83 99.3586 46.558 99.0866C46.286 98.7986 46.15 98.4466 46.15 98.0306V96.8546L46.678 97.0706C46.678 97.2786 46.566 97.5346 46.342 97.8386C46.118 98.1266 45.814 98.4146 45.43 98.7026C45.046 98.9906 44.59 99.2386 44.062 99.4466C43.55 99.6386 42.99 99.7346 42.382 99.7346C41.278 99.7346 40.278 99.4546 39.382 98.8946C38.486 98.3186 37.774 97.5346 37.246 96.5426C36.734 95.5346 36.478 94.3826 36.478 93.0866C36.478 91.7746 36.734 90.6226 37.246 89.6306C37.774 88.6226 38.478 87.8386 39.358 87.2786C40.238 86.7026 41.214 86.4146 42.286 86.4146C42.974 86.4146 43.606 86.5186 44.182 86.7266C44.758 86.9346 45.254 87.1986 45.67 87.5186C46.102 87.8386 46.43 88.1666 46.654 88.5026C46.894 88.8226 47.014 89.0946 47.014 89.3186L46.15 89.6306V87.8786C46.15 87.4626 46.286 87.1186 46.558 86.8466C46.83 86.5586 47.174 86.4146 47.59 86.4146ZM42.742 97.0946C43.446 97.0946 44.062 96.9186 44.59 96.5666C45.118 96.2146 45.526 95.7346 45.814 95.1266C46.118 94.5186 46.27 93.8386 46.27 93.0866C46.27 92.3186 46.118 91.6306 45.814 91.0226C45.526 90.4146 45.118 89.9346 44.59 89.5826C44.062 89.2306 43.446 89.0546 42.742 89.0546C42.054 89.0546 41.446 89.2306 40.918 89.5826C40.39 89.9346 39.974 90.4146 39.67 91.0226C39.382 91.6306 39.238 92.3186 39.238 93.0866C39.238 93.8386 39.382 94.5186 39.67 95.1266C39.974 95.7346 40.39 96.2146 40.918 96.5666C41.446 96.9186 42.054 97.0946 42.742 97.0946ZM58.1963 99.7346C56.8363 99.7346 55.6523 99.4546 54.6443 98.8946C53.6523 98.3186 52.8843 97.5426 52.3403 96.5666C51.8123 95.5906 51.5483 94.4866 51.5483 93.2546C51.5483 91.8146 51.8363 90.5906 52.4123 89.5826C53.0043 88.5586 53.7723 87.7746 54.7163 87.2306C55.6603 86.6866 56.6603 86.4146 57.7163 86.4146C58.5323 86.4146 59.3003 86.5826 60.0203 86.9186C60.7563 87.2546 61.4043 87.7186 61.9643 88.3106C62.5243 88.8866 62.9643 89.5586 63.2843 90.3266C63.6203 91.0946 63.7883 91.9106 63.7883 92.7746C63.7723 93.1586 63.6203 93.4706 63.3323 93.7106C63.0443 93.9506 62.7083 94.0706 62.3243 94.0706H53.1563L52.4363 91.6706H61.2443L60.7163 92.1506V91.5026C60.6843 91.0386 60.5163 90.6226 60.2123 90.2546C59.9243 89.8866 59.5563 89.5986 59.1083 89.3906C58.6763 89.1666 58.2123 89.0546 57.7163 89.0546C57.2363 89.0546 56.7883 89.1186 56.3723 89.2466C55.9563 89.3746 55.5963 89.5906 55.2923 89.8946C54.9883 90.1986 54.7483 90.6066 54.5723 91.1186C54.3963 91.6306 54.3083 92.2786 54.3083 93.0626C54.3083 93.9266 54.4843 94.6626 54.8363 95.2706C55.2043 95.8626 55.6683 96.3186 56.2283 96.6386C56.8043 96.9426 57.4123 97.0946 58.0523 97.0946C58.6443 97.0946 59.1163 97.0466 59.4683 96.9506C59.8203 96.8546 60.1003 96.7426 60.3083 96.6146C60.5323 96.4706 60.7323 96.3506 60.9083 96.2546C61.1963 96.1106 61.4683 96.0386 61.7243 96.0386C62.0763 96.0386 62.3643 96.1586 62.5883 96.3986C62.8283 96.6386 62.9483 96.9186 62.9483 97.2386C62.9483 97.6706 62.7243 98.0626 62.2763 98.4146C61.8603 98.7666 61.2763 99.0786 60.5243 99.3506C59.7723 99.6066 58.9963 99.7346 58.1963 99.7346ZM65.5606 97.5026C65.4006 97.2786 65.3286 96.9906 65.3446 96.6386C65.3606 96.2866 65.5686 95.9826 65.9686 95.7266C66.2246 95.5666 66.4966 95.5026 66.7846 95.5346C67.0726 95.5506 67.3526 95.6946 67.6246 95.9666C68.0886 96.4306 68.5766 96.7906 69.0886 97.0466C69.6006 97.3026 70.2406 97.4306 71.0086 97.4306C71.2486 97.4146 71.5126 97.3826 71.8006 97.3346C72.0886 97.2706 72.3366 97.1426 72.5446 96.9506C72.7686 96.7426 72.8806 96.4306 72.8806 96.0146C72.8806 95.6626 72.7606 95.3826 72.5206 95.1746C72.2806 94.9666 71.9606 94.7906 71.5606 94.6466C71.1766 94.5026 70.7446 94.3666 70.2646 94.2386C69.7686 94.0946 69.2566 93.9346 68.7286 93.7586C68.2166 93.5826 67.7446 93.3586 67.3126 93.0866C66.8806 92.7986 66.5286 92.4226 66.2566 91.9586C65.9846 91.4946 65.8486 90.9106 65.8486 90.2066C65.8486 89.4066 66.0726 88.7266 66.5206 88.1666C66.9686 87.6066 67.5446 87.1746 68.2486 86.8706C68.9686 86.5666 69.7206 86.4146 70.5046 86.4146C71.0006 86.4146 71.5206 86.4786 72.0646 86.6066C72.6086 86.7186 73.1286 86.9106 73.6246 87.1826C74.1206 87.4386 74.5366 87.7826 74.8726 88.2146C75.0486 88.4546 75.1526 88.7426 75.1846 89.0786C75.2166 89.4146 75.0646 89.7186 74.7286 89.9906C74.4886 90.1826 74.2086 90.2706 73.8886 90.2546C73.5686 90.2226 73.3046 90.1106 73.0966 89.9186C72.8246 89.5666 72.4566 89.2866 71.9926 89.0786C71.5446 88.8706 71.0246 88.7666 70.4326 88.7666C70.1926 88.7666 69.9286 88.7986 69.6406 88.8626C69.3686 88.9106 69.1286 89.0306 68.9206 89.2226C68.7126 89.3986 68.6086 89.6866 68.6086 90.0866C68.6086 90.4546 68.7286 90.7506 68.9686 90.9746C69.2086 91.1826 69.5286 91.3586 69.9286 91.5026C70.3446 91.6306 70.7846 91.7586 71.2486 91.8866C71.7286 92.0146 72.2166 92.1666 72.7126 92.3426C73.2086 92.5186 73.6646 92.7506 74.0806 93.0386C74.4966 93.3266 74.8326 93.7026 75.0886 94.1666C75.3446 94.6146 75.4726 95.1906 75.4726 95.8946C75.4726 96.7106 75.2326 97.4066 74.7526 97.9826C74.2726 98.5586 73.6726 98.9986 72.9526 99.3026C72.2326 99.5906 71.4966 99.7346 70.7446 99.7346C69.8006 99.7346 68.8566 99.5746 67.9126 99.2546C66.9686 98.9186 66.1846 98.3346 65.5606 97.5026ZM78.0267 86.8946H83.7147C84.0987 86.8946 84.4187 87.0226 84.6747 87.2786C84.9307 87.5346 85.0587 87.8546 85.0587 88.2386C85.0587 88.6066 84.9307 88.9186 84.6747 89.1746C84.4187 89.4146 84.0987 89.5346 83.7147 89.5346H78.0267C77.6427 89.5346 77.3227 89.4066 77.0667 89.1506C76.8107 88.8946 76.6827 88.5746 76.6827 88.1906C76.6827 87.8226 76.8107 87.5186 77.0667 87.2786C77.3227 87.0226 77.6427 86.8946 78.0267 86.8946ZM80.5947 83.8946C81.0107 83.8946 81.3467 84.0386 81.6027 84.3266C81.8747 84.5986 82.0107 84.9426 82.0107 85.3586V96.0386C82.0107 96.2626 82.0507 96.4466 82.1307 96.5906C82.2267 96.7346 82.3467 96.8386 82.4907 96.9026C82.6507 96.9666 82.8187 96.9986 82.9947 96.9986C83.1867 96.9986 83.3627 96.9666 83.5227 96.9026C83.6827 96.8226 83.8667 96.7826 84.0747 96.7826C84.2987 96.7826 84.4987 96.8866 84.6747 97.0946C84.8667 97.3026 84.9627 97.5906 84.9627 97.9586C84.9627 98.4066 84.7147 98.7746 84.2187 99.0626C83.7387 99.3506 83.2187 99.4946 82.6587 99.4946C82.3227 99.4946 81.9467 99.4706 81.5307 99.4226C81.1307 99.3586 80.7467 99.2226 80.3787 99.0146C80.0267 98.7906 79.7307 98.4546 79.4907 98.0066C79.2507 97.5586 79.1307 96.9426 79.1307 96.1586V85.3586C79.1307 84.9426 79.2667 84.5986 79.5387 84.3266C79.8267 84.0386 80.1787 83.8946 80.5947 83.8946ZM89.143 99.4946C88.727 99.4946 88.383 99.3586 88.111 99.0866C87.839 98.7986 87.703 98.4466 87.703 98.0306V88.1186C87.703 87.7026 87.839 87.3586 88.111 87.0866C88.383 86.7986 88.727 86.6546 89.143 86.6546C89.559 86.6546 89.903 86.7986 90.175 87.0866C90.447 87.3586 90.583 87.7026 90.583 88.1186V90.3746L90.415 88.7666C90.591 88.3826 90.815 88.0466 91.087 87.7586C91.375 87.4546 91.695 87.2066 92.047 87.0146C92.399 86.8066 92.775 86.6546 93.175 86.5586C93.575 86.4626 93.975 86.4146 94.375 86.4146C94.855 86.4146 95.255 86.5506 95.575 86.8226C95.911 87.0946 96.079 87.4146 96.079 87.7826C96.079 88.3106 95.943 88.6946 95.671 88.9346C95.399 89.1586 95.103 89.2706 94.783 89.2706C94.479 89.2706 94.199 89.2146 93.943 89.1026C93.703 88.9906 93.423 88.9346 93.103 88.9346C92.815 88.9346 92.519 89.0066 92.215 89.1506C91.927 89.2786 91.655 89.4866 91.399 89.7746C91.159 90.0626 90.959 90.4226 90.799 90.8546C90.655 91.2706 90.583 91.7666 90.583 92.3426V98.0306C90.583 98.4466 90.447 98.7986 90.175 99.0866C89.903 99.3586 89.559 99.4946 89.143 99.4946ZM110.026 93.0866C110.026 94.3986 109.73 95.5586 109.138 96.5666C108.562 97.5586 107.778 98.3346 106.786 98.8946C105.81 99.4546 104.714 99.7346 103.498 99.7346C102.282 99.7346 101.178 99.4546 100.186 98.8946C99.2102 98.3346 98.4262 97.5586 97.8342 96.5666C97.2582 95.5586 96.9702 94.3986 96.9702 93.0866C96.9702 91.7746 97.2582 90.6226 97.8342 89.6306C98.4262 88.6226 99.2102 87.8386 100.186 87.2786C101.178 86.7026 102.282 86.4146 103.498 86.4146C104.714 86.4146 105.81 86.7026 106.786 87.2786C107.778 87.8386 108.562 88.6226 109.138 89.6306C109.73 90.6226 110.026 91.7746 110.026 93.0866ZM107.146 93.0866C107.146 92.2706 106.978 91.5666 106.642 90.9746C106.322 90.3666 105.882 89.8946 105.322 89.5586C104.778 89.2226 104.17 89.0546 103.498 89.0546C102.826 89.0546 102.21 89.2226 101.65 89.5586C101.106 89.8946 100.666 90.3666 100.33 90.9746C100.01 91.5666 99.8502 92.2706 99.8502 93.0866C99.8502 93.8866 100.01 94.5906 100.33 95.1986C100.666 95.7906 101.106 96.2546 101.65 96.5906C102.21 96.9266 102.826 97.0946 103.498 97.0946C104.17 97.0946 104.778 96.9266 105.322 96.5906C105.882 96.2546 106.322 95.7906 106.642 95.1986C106.978 94.5906 107.146 93.8866 107.146 93.0866Z" fill="white"/>
</g>
<defs>
<clipPath id="clip0_103_50">
<rect width="138" height="130" fill="white"/>
</clipPath>
</defs>
</svg>
