<svg xmlns="http://www.w3.org/2000/svg" width="85" height="17" viewBox="0 0 254 51" fill="none">
<g id="main">

<path id="Mae" d="M29.648 49.64C27.7707 45.3733 25.872 41.128 23.952 36.904C22.032 32.6373 20.1547 28.328 18.32 23.976C17.7227 22.6107 17.1253 21.2453 16.528 19.88C15.9733 18.472 15.4187 17.064 14.864 15.656C14.352 14.248 13.8187 12.84 13.264 11.432C13.264 11.9013 13.2427 12.3707 13.2 12.84C13.2 13.3093 13.2 13.7787 13.2 14.248C13.1573 15.784 13.0933 17.64 13.008 19.816C12.9653 21.9493 12.9013 24.2533 12.816 26.728C12.7307 29.16 12.6667 31.6133 12.624 34.088C12.5813 36.52 12.5387 38.824 12.496 41C12.4533 41.9387 12.4107 42.8773 12.368 43.816C12.368 44.7547 12.3253 45.6293 12.24 46.44C13.0507 46.3973 13.84 46.3547 14.608 46.312C15.4187 46.2693 16.2293 46.2267 17.04 46.184V49H4.816V46.888C6.13867 46.8453 7.09867 46.568 7.696 46.056C8.336 45.5013 8.74133 44.776 8.912 43.88C9.08267 42.984 9.18933 42.024 9.232 41L10.448 11.816C10.4907 10.9627 10.512 10.1093 10.512 9.256C10.5547 8.40266 10.5973 7.57066 10.64 6.76C9.872 6.80266 9.104 6.84533 8.336 6.888C7.568 6.888 6.8 6.90933 6.032 6.952V4.2H15.824L26.832 29.608C27.3867 30.888 27.92 32.168 28.432 33.448C28.9867 34.728 29.5413 36.008 30.096 37.288C30.6933 38.568 31.2693 39.8693 31.824 41.192H31.952C32.4213 40.04 32.976 38.6747 33.616 37.096C34.256 35.4747 34.7893 34.088 35.216 32.936C37.0933 28.2427 39.0347 23.5493 41.04 18.856C43.088 14.12 45.0933 9.23466 47.056 4.2H56.528V6.312C55.4613 6.26933 54.5867 6.48266 53.904 6.952C53.2213 7.37867 52.7307 8.104 52.432 9.128C52.1333 10.152 52.0267 11.5387 52.112 13.288L53.776 42.408C53.8613 43.1333 53.904 43.8373 53.904 44.52C53.904 45.2027 53.904 45.8213 53.904 46.376C54.672 46.3333 55.44 46.312 56.208 46.312C57.0187 46.2693 57.808 46.2267 58.576 46.184V49H44.24V46.888C45.5627 46.8453 46.544 46.5253 47.184 45.928C47.824 45.3307 48.208 44.4773 48.336 43.368C48.5067 42.2587 48.5493 40.8933 48.464 39.272L47.184 18.152C47.1413 17.4693 47.0987 16.7867 47.056 16.104C47.0133 15.4213 46.9707 14.7387 46.928 14.056C46.8853 13.3733 46.8427 12.6907 46.8 12.008C46.672 12.3067 46.5227 12.6267 46.352 12.968C46.224 13.3093 46.096 13.672 45.968 14.056L31.568 49.64H29.648ZM83.022 49C82.894 48.2747 82.8087 47.6347 82.766 47.08C82.7233 46.5253 82.6593 45.9493 82.574 45.352C81.1233 46.8027 79.5447 47.9547 77.838 48.808C76.174 49.6187 74.4033 50.024 72.526 50.024C69.2833 50.024 66.8727 49.2987 65.294 47.848C63.7153 46.3547 62.926 44.5413 62.926 42.408C62.926 40.4453 63.5233 38.76 64.718 37.352C65.9553 35.9013 67.534 34.728 69.454 33.832C71.4167 32.8933 73.5287 32.2107 75.79 31.784C78.094 31.3147 80.3127 31.1013 82.446 31.144V27.176C82.446 25.6827 82.318 24.2747 82.062 22.952C81.806 21.6293 81.2513 20.5413 80.398 19.688C79.5447 18.8347 78.1793 18.3867 76.302 18.344C75.0647 18.3013 73.7847 18.536 72.462 19.048C71.182 19.56 70.2433 20.4347 69.646 21.672C69.9873 22.0133 70.2007 22.4187 70.286 22.888C70.414 23.3147 70.478 23.72 70.478 24.104C70.478 24.616 70.2647 25.2133 69.838 25.896C69.4113 26.536 68.6647 26.8347 67.598 26.792C66.702 26.792 66.0193 26.4933 65.55 25.896C65.0807 25.256 64.846 24.5093 64.846 23.656C64.846 22.2053 65.3793 20.904 66.446 19.752C67.5553 18.6 69.07 17.6827 70.99 17C72.91 16.3173 75.086 15.976 77.518 15.976C81.102 15.976 83.7473 16.936 85.454 18.856C87.1607 20.7333 87.9927 23.72 87.95 27.816C87.95 29.3947 87.95 30.9947 87.95 32.616C87.95 34.1947 87.9287 35.7947 87.886 37.416C87.886 38.9947 87.886 40.5947 87.886 42.216C87.886 42.8987 87.8647 43.5813 87.822 44.264C87.7793 44.9467 87.7153 45.7147 87.63 46.568C88.398 46.5253 89.1447 46.4827 89.87 46.44C90.638 46.3973 91.406 46.3547 92.174 46.312V49H83.022ZM82.446 33.32C80.9953 33.3627 79.4593 33.5547 77.838 33.896C76.2593 34.1947 74.7873 34.664 73.422 35.304C72.0993 35.944 71.0113 36.7973 70.158 37.864C69.3473 38.888 68.9633 40.1467 69.006 41.64C69.0913 43.2187 69.6033 44.4133 70.542 45.224C71.5233 45.992 72.6753 46.376 73.998 46.376C75.7473 46.376 77.262 46.056 78.542 45.416C79.8647 44.7333 81.166 43.7947 82.446 42.6C82.4033 42.1307 82.382 41.6187 82.382 41.064C82.382 40.5093 82.382 39.9333 82.382 39.336C82.382 39.1227 82.382 38.44 82.382 37.288C82.4247 36.136 82.446 34.8133 82.446 33.32ZM112.054 50.024C109.11 50.024 106.443 49.3413 104.054 47.976C101.707 46.568 99.8513 44.6053 98.486 42.088C97.1207 39.528 96.438 36.52 96.438 33.064C96.438 30.0773 97.0993 27.2827 98.422 24.68C99.7873 22.0773 101.686 19.9867 104.118 18.408C106.55 16.7867 109.366 15.976 112.566 15.976C114.358 15.976 116.022 16.2747 117.558 16.872C119.137 17.4267 120.523 18.3013 121.718 19.496C122.913 20.648 123.851 22.12 124.534 23.912C125.217 25.6613 125.558 27.7307 125.558 30.12L103.03 30.504C103.03 33.7467 103.371 36.6053 104.054 39.08C104.779 41.512 105.931 43.4107 107.51 44.776C109.089 46.0987 111.115 46.76 113.59 46.76C114.913 46.76 116.257 46.5253 117.622 46.056C119.03 45.5867 120.331 44.9467 121.526 44.136C122.721 43.3253 123.681 42.4293 124.406 41.448L125.942 42.728C124.79 44.52 123.403 45.9493 121.782 47.016C120.161 48.0827 118.497 48.8507 116.79 49.32C115.083 49.7893 113.505 50.024 112.054 50.024ZM103.222 27.816H119.542C119.542 26.28 119.307 24.808 118.838 23.4C118.411 21.9493 117.686 20.776 116.662 19.88C115.638 18.9413 114.294 18.472 112.63 18.472C110.155 18.472 108.086 19.2187 106.422 20.712C104.801 22.1627 103.734 24.5307 103.222 27.816Z" fill="#404040"/>
<path id="tro" d="M178.848 50.024C177.867 50.024 176.864 49.8747 175.84 49.576C174.816 49.32 173.856 48.7867 172.96 47.976C172.107 47.1653 171.424 45.992 170.912 44.456C170.4 42.8773 170.144 40.808 170.144 38.248L170.272 19.688L165.344 19.752V17C166.453 16.9573 167.584 16.552 168.736 15.784C169.888 14.9733 170.912 13.8853 171.808 12.52C172.747 11.1547 173.387 9.66133 173.728 8.04H175.904V17H186.656V19.496L175.904 19.624L175.776 37.416C175.776 39.336 175.925 40.9787 176.224 42.344C176.565 43.6667 177.099 44.6693 177.824 45.352C178.549 46.0347 179.488 46.376 180.64 46.376C181.835 46.376 182.944 46.0347 183.968 45.352C185.035 44.6693 185.973 43.7307 186.784 42.536L188.512 43.944C187.573 45.352 186.635 46.4613 185.696 47.272C184.8 48.0827 183.925 48.68 183.072 49.064C182.219 49.4907 181.429 49.7467 180.704 49.832C179.979 49.96 179.36 50.024 178.848 50.024ZM191.566 47.08C192.889 47.08 193.806 46.76 194.318 46.12C194.83 45.4373 195.129 44.52 195.214 43.368C195.299 42.1733 195.342 40.808 195.342 39.272V24.68C195.342 23.9973 195.342 23.3147 195.342 22.632C195.385 21.9493 195.47 21.2453 195.598 20.52C194.83 20.5627 194.062 20.6053 193.294 20.648C192.569 20.648 191.822 20.6693 191.054 20.712V18.088H193.038C194.873 18.088 196.131 17.9173 196.814 17.576C197.539 17.192 198.137 16.7867 198.606 16.36H200.462C200.547 17.0427 200.611 17.896 200.654 18.92C200.697 19.9013 200.739 21.16 200.782 22.696C201.422 21.6293 202.297 20.584 203.406 19.56C204.515 18.536 205.753 17.6827 207.118 17C208.526 16.3173 209.998 15.976 211.534 15.976C212.729 15.976 213.774 16.296 214.67 16.936C215.566 17.576 216.014 18.6 216.014 20.008C216.014 20.3493 215.907 20.776 215.694 21.288C215.481 21.7573 215.139 22.184 214.67 22.568C214.201 22.9093 213.582 23.08 212.814 23.08C211.875 23.0373 211.129 22.6747 210.574 21.992C210.019 21.2667 209.806 20.4347 209.934 19.496C208.867 19.4533 207.758 19.7307 206.606 20.328C205.497 20.9253 204.451 21.7573 203.47 22.824C202.489 23.848 201.614 25.064 200.846 26.472L200.91 42.216C200.91 43.0693 200.889 43.8373 200.846 44.52C200.846 45.16 200.782 45.8427 200.654 46.568C201.337 46.5253 201.998 46.504 202.638 46.504C203.321 46.4613 204.003 46.4187 204.686 46.376V49H191.566V47.08ZM234.688 50.024C231.701 50.024 228.992 49.3413 226.56 47.976C224.128 46.568 222.187 44.648 220.736 42.216C219.328 39.7413 218.624 36.9253 218.624 33.768C218.624 30.3973 219.328 27.368 220.736 24.68C222.144 21.992 224.064 19.88 226.496 18.344C228.928 16.7653 231.659 15.976 234.688 15.976C237.675 15.976 240.384 16.7013 242.816 18.152C245.248 19.56 247.189 21.48 248.64 23.912C250.091 26.344 250.816 29.1173 250.816 32.232C250.816 35.5173 250.091 38.5253 248.64 41.256C247.232 43.944 245.312 46.0773 242.88 47.656C240.448 49.2347 237.717 50.024 234.688 50.024ZM235.2 47.464C237.461 47.464 239.253 46.824 240.576 45.544C241.899 44.264 242.837 42.6 243.392 40.552C243.989 38.504 244.288 36.3493 244.288 34.088C244.288 32.168 244.096 30.2907 243.712 28.456C243.371 26.5787 242.816 24.8933 242.048 23.4C241.28 21.864 240.277 20.648 239.04 19.752C237.845 18.856 236.395 18.408 234.688 18.408C232.469 18.408 230.656 19.048 229.248 20.328C227.84 21.608 226.795 23.272 226.112 25.32C225.472 27.368 225.152 29.5653 225.152 31.912C225.152 34.5573 225.515 37.0747 226.24 39.464C226.965 41.8107 228.075 43.7307 229.568 45.224C231.061 46.7173 232.939 47.464 235.2 47.464Z" fill="#404040"/>
<path id="Vector" d="M161.181 11.1173C160.894 10.743 160.604 10.3999 160.319 10.0981C158.064 7.71206 154.05 5.75731 149.58 4.86935C146.718 4.30036 143.311 1.54383 142.241 0.530753C141.577 -0.10091 140.453 -0.19716 139.647 0.396004C139.21 0.718327 138.982 1.21479 138.982 1.72066L138.981 3.99819L138.98 6.2352L138.964 34.0617C137.941 33.6931 136.838 33.4986 135.7 33.4981C130.905 33.4981 127.002 36.9734 127 41.245C126.998 45.519 130.899 48.9976 135.696 48.9998C135.696 48.9998 135.7 48.9998 135.7 48.9998C140.495 48.9998 144.398 45.5246 144.4 41.2527L144.413 16.1005C145.402 16.3973 146.557 16.6263 147.906 16.7333C153.066 17.1427 156.541 18.0627 158.842 19.6282C160.56 20.7972 160.628 21.3656 160.654 21.4914C160.654 21.4943 160.654 21.4972 160.654 21.5001C160.657 21.676 160.83 21.8126 161.027 21.8126L162.565 21.8135L163.268 21.8137C163.921 21.8139 164.449 21.3432 164.45 20.7623V20.7518C164.452 17.2401 163.321 13.9085 161.181 11.1173Z" fill="#404040"/>
</g>

</svg>